<svg xmlns="http://www.w3.org/2000/svg" width="32" height="32" viewBox="0 0 32 32">
  <defs>
    <filter id="glow" x="-100%" y="-100%" width="300%" height="300%">
      <feGaussianBlur stdDeviation="2.2" result="blur"/>
      <feFlood flood-color="#2cff78" flood-opacity=".9"/>
      <feComposite in2="blur" operator="in"/>
      <feMerge>
        <feMergeNode/>
        <feMergeNode in="SourceGraphic"/>
      </feMerge>
    </filter>
  </defs>
  <path
    d="M10.2 15.2V6.6a2.05 2.05 0 0 1 4.1 0v6.2-2.2a2.05 2.05 0 0 1 4.1 0v2.8-1.5a2.05 2.05 0 0 1 4.1 0v2.8-1a2.05 2.05 0 0 1 4.1 0v5.9c0 5-3.25 8.1-8.25 8.1h-1.7c-3.25 0-5.35-1.65-7.25-4.35l-3.5-5a2.1 2.1 0 0 1 3.35-2.5l.95 1.3Z"
    fill="#111814"
    stroke="#b8ffd1"
    stroke-width="1.65"
    stroke-linecap="round"
    stroke-linejoin="round"
    filter="url(#glow)"
  />
</svg>
